<svg width="386" height="148" viewBox="0 0 386 148" fill="none" xmlns="http://www.w3.org/2000/svg">
<path d="M213.123 50.0942C213.267 52.6573 213.398 55.2211 213.557 57.7833C213.825 62.0994 213.746 66.2191 208.062 67.1581C213.442 73.428 214.134 86.0918 209.74 92.9883C208.492 94.9469 208.202 96.4663 208.904 99.2092C210.668 106.092 212.992 113.537 206.919 119.983C206.278 120.664 206.399 123.276 207.077 123.787C210.864 126.646 211.259 130.522 211.243 134.75C211.193 147.957 211.231 147.96 197.843 147.962C179.022 147.965 160.201 147.92 141.38 148.003C137.59 148.02 135.235 147.575 136.847 142.789C137.769 140.055 138.032 137.008 138.088 134.093C138.181 129.269 139.398 125.664 144.401 123.542C145.446 123.099 145.877 118.21 144.826 116.388C141.666 110.908 142.465 104.735 148.081 101.693C151.431 99.8783 150.15 97.2326 150.093 94.8481C149.983 90.249 149.132 85.6305 149.435 81.0764C149.563 79.1626 151.592 77.1292 153.193 75.6098C156.735 72.2479 156.965 70.2901 153.636 66.8324C151.051 64.1485 152.079 55.1645 155.435 51.3323C156.09 50.5849 156.848 49.9289 158.117 49.3428C163.139 50.0357 164.221 46.6555 165.123 43.5557C166.128 40.1048 166.599 36.4986 167.651 32.9832C168.458 33.0764 168.917 33.1464 169.337 33.6154C167.367 45.1394 165.396 56.2575 163.516 67.3909C160.029 88.0334 156.557 108.679 153.215 129.345C152.969 130.867 153.814 132.566 154.152 134.183C155.113 132.88 156.69 131.688 156.945 130.259C161.491 104.743 165.855 79.1945 170.311 53.6619C171.869 44.7323 173.568 35.8273 175.346 27.3401C175.489 29.5617 175.489 31.3541 175.489 33.5569C182.655 33.5569 189.66 33.5569 197.215 33.5569C197.215 30.1024 197.301 26.829 197.155 23.566C197.118 22.7408 196.35 21.254 195.898 21.2462C189.307 21.1323 182.573 17.8109 176.02 21.5189C176.685 16.439 177.477 11.7931 178.501 7.40331C178.327 11.2056 177.922 14.7516 177.48 18.6233C180.837 18.6233 184.085 18.5945 187.332 18.6302C191.966 18.6812 197.134 20.6765 200.34 15.4417C199.427 29.0503 198.371 42.2358 197.219 55.413C195.642 73.4489 193.992 91.4784 192.376 109.511C191.754 116.46 190.994 123.403 190.645 130.366C190.578 131.693 192.142 133.101 192.953 134.472C193.98 133.189 195.138 131.985 195.975 130.588C196.346 129.969 196.035 128.958 196.088 128.128C196.534 121.157 196.881 114.177 197.468 107.218C199.34 85.0415 201.292 62.8717 203.233 40.701C204.217 29.4671 205.209 18.2337 206.332 7.01348C206.402 6.31878 207.651 5.7422 208.341 5.55801C207.339 18.2119 205.589 30.4614 208.428 42.5951C209.063 45.3122 211.51 47.6057 213.123 50.0942ZM181.887 49.7367C185.848 49.7367 189.81 49.7367 193.617 49.7367C197.138 38.8221 196.505 37.8958 185.957 37.8518C176.094 37.8106 176.089 37.8106 176.152 47.6696C176.155 48.1333 176.411 48.5953 176.656 49.4155C178.04 49.5183 179.491 49.6261 181.887 49.7367ZM184.483 90.0093C181.491 89.9761 178.485 90.1178 175.513 89.8618C172.361 89.5903 171.349 91.2012 171.266 93.9175C171.216 95.5541 171.257 97.1935 171.257 99.2556C177.602 99.2556 183.661 99.2556 189.693 99.2556C191.728 90.942 191.483 90.4268 184.483 90.0093ZM173.879 65.0493C172.639 73.3188 172.639 73.3187 180.97 73.313C182.468 73.3119 183.966 73.312 185.464 73.3115C193.093 73.3085 193.759 72.4936 192.623 64.3034C186.572 64.3034 180.486 64.3034 173.879 65.0493ZM176.626 124.704C179.923 124.473 183.221 124.243 186.854 123.989C186.854 121.274 186.854 118.884 186.854 115.965C183.451 115.965 180.158 115.956 176.865 115.967C169.104 115.991 168.706 116.409 168.818 124.72C171.109 124.72 173.409 124.72 176.626 124.704Z" fill="black"/>
<path d="M175.203 26.911C173.568 35.8273 171.869 44.7323 170.311 53.6619C165.855 79.1945 161.491 104.743 156.945 130.259C156.69 131.688 155.113 132.88 154.152 134.183C153.814 132.566 152.969 130.867 153.215 129.345C156.557 108.679 160.029 88.0334 163.516 67.3909C165.396 56.2575 167.367 45.1394 169.602 33.3029C171.298 24.0757 172.689 15.5599 174.126 6.60069C172.61 5.73876 171.057 4.99002 169.486 4.9526C152.108 4.53853 134.728 4.23481 117.348 3.90124C117.601 3.14188 117.854 2.38252 118.679 1.29613C120.917 0.967525 122.582 0.974358 124.247 0.963169C171.872 0.643223 219.496 0.321464 267.12 0C267.057 1.59852 266.994 3.19704 266.115 4.94702C246.317 5.10254 227.335 5.1066 208.352 5.11066C207.651 5.74219 206.402 6.31878 206.332 7.01348C205.209 18.2337 204.217 29.4671 203.233 40.701C201.292 62.8717 199.34 85.0415 197.468 107.218C196.881 114.177 196.534 121.157 196.088 128.128C196.035 128.958 196.346 129.969 195.975 130.588C195.138 131.985 193.98 133.189 192.953 134.472C192.142 133.101 190.578 131.693 190.645 130.366C190.994 123.403 191.754 116.46 192.376 109.511C193.992 91.4784 195.642 73.4489 197.219 55.413C198.371 42.2358 199.427 29.0503 200.362 14.9874C200.197 11.1172 200.197 8.1279 200.197 4.91296C193.96 4.91296 187.505 4.82205 181.059 5.01253C180.109 5.04059 179.199 6.40241 178.27 7.14714C177.477 11.7931 176.685 16.439 176.047 21.5254C176.201 21.9658 176.178 21.9167 175.869 22.1471C175.434 23.9151 175.307 25.4527 175.208 26.9768C175.236 26.9632 175.203 26.911 175.203 26.911Z" fill="#F3F7F9"/>
<path d="M4.62581 44.7118C-0.368663 39.1937 -1.54921 24.2794 2.21943 18.4862C4.74074 14.6104 8.38518 12.9496 12.9179 12.9622C18.9169 12.9788 24.9159 12.9631 30.915 12.9669C39.4444 12.9722 41.8314 15.7381 40.7923 24.9651C33.2348 24.9651 25.6052 24.8042 17.9927 25.0942C16.3742 25.1558 13.5424 26.7875 13.4836 27.8218C13.334 30.4512 11.3216 34.4011 16.6229 35.1481C21.1096 35.7803 25.4837 37.178 29.9591 37.9301C37.6092 39.2155 40.423 41.5711 42.2957 49.3587C44.0723 56.7465 44.4573 64.1188 38.5121 69.9623C36.8416 71.6043 33.9825 72.7045 31.6032 72.832C24.6244 73.2059 17.6126 72.9657 10.6138 72.9655C0.809523 72.9652 -0.418673 71.5707 0.597577 60.9655C5.3115 60.9655 10.0913 60.9655 14.8712 60.9655C19.4993 60.9655 24.1275 60.9655 28.5655 60.9655C28.89 60.25 29.1233 59.9687 29.1334 59.6795C29.4574 50.4389 29.4211 50.6133 20.413 48.9086C15.1971 47.9214 10.1079 46.2647 4.62581 44.7118Z" fill="#12355B"/>
<path d="M65.4793 78.2961C66.1788 76.4374 66.6668 74.9286 67.2286 73.1917C65.323 73.0681 63.6827 72.9618 61.7889 72.8391C57.363 59.1151 52.8672 45.3034 48.4797 31.4574C47.6229 28.7536 48.4394 27.1114 51.7546 26.9131C60.0351 26.4179 61.1012 27.1763 63.2169 35.0491C65.5235 43.6323 68.0741 52.1499 70.9087 62.061C74.701 49.6145 78.1173 38.4022 81.6008 26.9692C84.7164 26.9692 87.697 26.9571 90.6774 26.9726C93.782 26.9888 94.6664 28.0377 93.5947 31.329C89.2782 44.5848 85.296 57.9491 81.1336 71.2555C79.1047 77.7414 76.9507 84.1882 74.7518 90.9659C71.998 90.9659 69.1863 90.9387 66.3753 90.9727C62.7375 91.0166 61.7948 89.4701 63.1177 86.0813C64.0521 83.6879 64.5661 81.1303 65.4793 78.2961Z" fill="#12355B"/>
<path d="M274.606 28.0856C282.109 27.7595 289.35 27.0782 296.426 27.8693C301.836 28.474 304.978 33.5294 305.149 40.3454C305.415 50.9809 305.219 61.6279 305.219 72.78C294.922 72.78 284.792 73.4118 274.788 72.5635C267.827 71.9732 264.147 62.606 266.517 54.1992C268.113 48.5373 272.617 45.0769 278.619 44.9745C282.781 44.9034 286.944 44.9124 291.106 44.8752C291.255 44.8739 291.404 44.7607 291.553 44.6997C292.897 38.453 292.562 37.9853 286.631 37.9681C281.666 37.9537 276.7 37.9651 271.234 37.9651C271.761 34.2794 269.286 30.2966 274.606 28.0856ZM283.856 61.9654C286.592 61.9654 289.327 61.9654 291.846 61.9654C291.846 59.2179 291.846 57.1821 291.846 54.9666C288.68 54.9666 285.884 55.0571 283.098 54.9406C280.428 54.829 279.298 55.8144 279.144 58.6247C278.974 61.7091 280.391 62.2908 283.856 61.9654Z" fill="#12355B"/>
<path d="M341.219 27.1639C350.546 27.0982 359.874 26.9092 369.2 27.0043C377.229 27.0862 380.873 33.3574 381.104 39.4073C381.521 50.3667 381.222 61.3533 381.222 72.6459C376.88 72.6459 372.825 72.6459 368.224 72.6459C368.224 62.8056 368.032 53.022 368.313 43.252C368.434 39.0256 367.045 37.5112 362.889 37.9101C359.929 38.1942 356.919 37.9652 353.418 37.9652C353.418 49.5599 353.418 60.9595 353.418 72.9407C349.323 72.9407 345.719 72.9407 341.661 72.4136C341.212 56.9789 341.215 42.0714 341.219 27.1639Z" fill="#12355B"/>
<path d="M380.715 97.9685C382.236 98.4262 383.329 98.8821 385.694 99.8684C381.119 104.11 377.324 107.542 373.632 111.082C370.924 113.679 370.017 116.053 372.982 119.64C377.411 124.999 381.016 131.04 385.004 136.838C382.24 140.179 373.499 139.899 370.925 136.289C368.006 132.194 364.986 128.17 362.01 124.116C361.465 124.083 360.919 124.049 360.373 124.016C359.381 128.714 358.389 133.413 357.293 138.604C354.658 138.604 351.268 138.604 347.545 138.604C347.545 119.652 347.545 100.613 347.545 81.2696C350.93 81.2696 354.315 81.2696 358.026 81.2696C358.026 91.2987 358.026 101.23 358.026 112.204C365.265 106.107 368.804 95.4307 380.715 97.9685Z" fill="black"/>
<path d="M100.128 45.7855C97.0138 35.1097 102.718 26.9928 112.993 26.9675C116.488 26.9589 119.982 26.9655 123.477 26.9665C132.003 26.969 133.864 29.0712 132.746 37.9653C127.529 37.9653 122.243 37.9479 116.956 37.974C114.853 37.9844 111.927 37.5357 112.433 40.77C112.675 42.3208 114.75 44.104 116.406 44.7868C118.597 45.6901 121.19 45.6106 123.609 45.9662C132.393 47.2577 137.072 54.2869 134.844 62.8364C132.686 71.1179 130.222 72.9626 121.309 72.965C117.315 72.9661 113.306 72.7395 109.331 73.0152C102.278 73.5044 97.634 70.7851 99.5347 61.9653C105.414 61.9653 111.492 62.1272 117.551 61.8551C119.13 61.7842 121.61 60.6791 122.003 59.494C122.936 56.6808 120.736 56.1065 118.246 55.8342C115.043 55.4839 111.832 54.8197 108.745 53.891C104.777 52.6976 100.952 51.081 100.128 45.7855Z" fill="#12355B"/>
<path d="M273.598 113.966C277.532 113.966 281.012 113.966 284.642 113.966C286.063 109.625 284.964 107.653 280.241 107.913C275.786 108.157 271.307 107.965 266.9 107.965C265.444 100.441 267.396 98.0031 274.625 97.969C278.118 97.9525 281.611 97.9449 285.103 97.9706C292.553 98.0252 297.003 102.156 297.171 109.73C297.381 119.203 297.222 128.684 297.222 138.832C288.054 138.832 278.953 139.387 269.961 138.632C264.194 138.147 261.789 132.836 262.235 124.815C262.538 119.356 265.53 114.559 273.598 113.966ZM279.723 122.965C277.972 122.965 276.222 122.965 274.186 122.965C274.293 125.296 274.371 127.006 274.446 128.653C278.259 128.653 281.629 128.653 285.072 128.653C285.072 126.738 285.072 125.136 285.072 123.216C283.515 123.128 282.084 123.047 279.723 122.965Z" fill="black"/>
<path d="M117.298 4.31134C134.728 4.23481 152.108 4.53853 169.486 4.9526C171.057 4.99003 172.61 5.73876 173.768 6.6473C172.676 7.97229 171.544 8.7238 171.369 9.65515C169.913 17.4046 168.635 25.1873 167.303 32.9599C166.599 36.4986 166.128 40.1048 165.123 43.5557C164.221 46.6555 163.139 50.0357 158.441 49.2142C156.805 41.3257 157.95 33.9584 160.033 26.5294C161.562 21.078 160.273 19.9566 154.36 19.9515C142.715 19.9413 131.069 19.87 119.424 19.997C115.166 20.0435 113.556 18.8076 115.107 14.3665C116.184 11.2785 116.56 7.94518 117.298 4.31134Z" fill="#13365C"/>
<path d="M208.341 5.55804C227.335 5.10663 246.317 5.10257 265.764 5.14732C265.639 19.2565 264.899 17.7331 253.354 17.9982C241.584 18.2685 229.822 18.8581 217.323 19.3359C215.936 29.3107 214.552 39.2586 213.146 49.6503C211.51 47.6057 209.063 45.3122 208.428 42.5951C205.589 30.4614 207.339 18.2119 208.341 5.55804Z" fill="#13365C"/>
<path d="M306.224 116.011C306.436 110.374 304.926 104.662 309.93 100.906C311.881 99.4412 314.478 98.3581 316.891 98.0914C320.999 97.6373 325.194 97.9654 329.353 97.9663C337.388 97.9682 338.465 99.1215 338.04 107.762C331.684 107.762 325.28 107.762 318.553 107.762C318.553 114.944 318.553 121.659 318.553 128.877C324.95 128.877 331.347 128.877 337.656 128.877C339.016 138.056 338.254 138.961 329.651 138.965C325.659 138.967 321.666 138.978 317.674 138.962C310.433 138.934 306.486 135.194 306.247 127.977C306.12 124.156 306.224 120.326 306.224 116.011Z" fill="black"/>
<path d="M247.223 44.1641C247.223 53.9086 247.223 63.173 247.223 72.6995C242.777 72.6995 238.731 72.6995 234.236 72.6995C234.236 59.587 234.132 46.6743 234.307 33.7654C234.352 30.4303 239.318 27.1764 243.927 26.989C246.746 26.8743 249.574 26.9615 252.398 26.9674C260.077 26.9834 262.624 29.789 261.87 37.9651C258.978 37.9651 256.003 38.2219 253.09 37.9058C248.553 37.4136 246.419 38.9523 247.223 44.1641Z" fill="#12355B"/>
<path d="M235.539 100.263C241.669 99.3633 247.508 97.944 253.245 98.2796C258.169 98.5677 258.983 102.929 257.856 107.965C255.306 107.965 252.526 108.134 249.776 107.923C246.297 107.656 245.085 109.01 245.162 112.503C245.35 121.112 245.223 129.727 245.223 138.651C241.212 138.651 237.498 138.651 233.249 138.651C233.249 127.193 233.187 115.787 233.335 104.384C233.352 103.083 234.552 101.797 235.539 100.263Z" fill="black"/>
<path d="M316.224 50.9656C316.224 42.8327 316.224 35.1998 316.224 27.2682C320.604 27.2682 324.657 27.2682 328.969 27.2682C328.969 42.319 328.969 57.2505 328.969 72.5743C325.023 72.5743 320.968 72.5743 316.224 72.5743C316.224 65.6477 316.224 58.5566 316.224 50.9656Z" fill="#12355B"/>
<path d="M316.299 9.23485C320.397 8.39267 324.439 8.0213 328.873 7.61401C328.873 11.9092 328.873 15.6324 328.873 19.6645C324.847 19.6645 320.79 19.6645 316.243 19.6645C316.243 16.2755 316.243 12.9906 316.299 9.23485Z" fill="#12355B"/>
<path d="M178.501 7.40332C179.199 6.40243 180.109 5.04061 181.059 5.01255C187.505 4.82207 193.96 4.91298 200.197 4.91298C200.197 8.12792 200.197 11.1172 200.175 14.5607C197.134 20.6765 191.966 18.6812 187.332 18.6302C184.085 18.5945 180.837 18.6233 177.48 18.6233C177.922 14.7516 178.327 11.2056 178.501 7.40332Z" fill="#13365C"/>
<path d="M176.174 21.9594C182.573 17.8109 189.307 21.1323 195.898 21.2461C196.35 21.254 197.118 22.7408 197.155 23.566C197.301 26.8289 197.215 30.1024 197.215 33.5569C189.66 33.5569 182.655 33.5569 175.489 33.5569C175.489 31.3541 175.489 29.5616 175.346 27.3401C175.203 26.911 175.236 26.9632 175.466 26.7001C175.856 24.9302 176.017 23.4235 176.178 21.9167C176.178 21.9167 176.201 21.9658 176.174 21.9594Z" fill="#13365C"/>
<path d="M181.414 49.7353C179.491 49.6261 178.04 49.5183 176.656 49.4155C176.411 48.5953 176.155 48.1333 176.152 47.6696C176.089 37.8106 176.094 37.8106 185.957 37.8518C196.505 37.8959 197.138 38.8221 193.617 49.7367C189.81 49.7367 185.848 49.7367 181.414 49.7353Z" fill="#F7FBFD"/>
<path d="M184.942 90.024C191.483 90.4268 191.728 90.942 189.693 99.2556C183.661 99.2556 177.602 99.2556 171.257 99.2556C171.257 97.1935 171.216 95.5541 171.266 93.9175C171.349 91.2012 172.361 89.5903 175.513 89.8617C178.485 90.1178 181.491 89.9761 184.942 90.024Z" fill="#F7FBFD"/>
<path d="M174.139 64.6764C180.486 64.3034 186.572 64.3034 192.623 64.3034C193.759 72.4937 193.093 73.3085 185.464 73.3115C183.966 73.3121 182.468 73.3119 180.97 73.313C172.639 73.3187 172.639 73.3188 174.139 64.6764Z" fill="#F7FBFD"/>
<path d="M176.167 124.712C173.409 124.72 171.109 124.72 168.818 124.72C168.706 116.409 169.104 115.991 176.865 115.967C180.158 115.956 183.451 115.965 186.854 115.965C186.854 118.884 186.854 121.274 186.854 123.989C183.221 124.243 179.923 124.473 176.167 124.712Z" fill="#F7FBFD"/>
<path d="M167.651 32.9831C168.635 25.1873 169.913 17.4046 171.369 9.65515C171.544 8.7238 172.676 7.97229 173.723 7.09082C172.689 15.5599 171.298 24.0757 169.641 32.9039C168.917 33.1464 168.458 33.0764 167.651 32.9831Z" fill="black"/>
<path d="M175.869 22.1471C176.017 23.4235 175.856 24.9302 175.438 26.7137C175.307 25.4527 175.434 23.9151 175.869 22.1471Z" fill="#479ED1"/>
</svg>
