<svg width="152" height="144" viewBox="0 0 152 144" fill="none" xmlns="http://www.w3.org/2000/svg">
<path d="M98.5946 45.7947C98.7384 48.3578 98.8698 50.9216 99.0289 53.4838C99.2969 57.7999 99.2178 61.9196 93.5335 62.8586C98.9136 69.1285 99.6058 81.7923 95.2117 88.6888C93.9639 90.6474 93.6733 92.1668 94.376 94.9097C96.1393 101.792 98.4631 109.237 92.3906 115.684C91.7491 116.365 91.8709 118.976 92.5481 119.487C96.336 122.347 96.7301 126.222 96.7142 130.45C96.6645 143.658 96.7028 143.66 83.3144 143.662C64.4935 143.666 45.6725 143.62 26.852 143.704C23.062 143.721 20.7065 143.276 22.319 138.49C23.2403 135.755 23.5034 132.709 23.5595 129.793C23.6523 124.97 24.8693 121.364 29.8726 119.243C30.9172 118.8 31.3485 113.91 30.2975 112.088C27.1371 106.609 27.9362 100.436 33.5521 97.3937C36.9025 95.5788 35.622 92.9331 35.5647 90.5486C35.4542 85.9495 34.6036 81.331 34.9067 76.7769C35.0341 74.8631 37.0634 72.8297 38.6643 71.3103C42.2064 67.9484 42.4367 65.9906 39.1073 62.5329C36.523 59.849 37.5505 50.865 40.9067 47.0328C41.5612 46.2854 42.32 45.6294 43.5888 45.0433C48.611 45.7362 49.6925 42.356 50.5949 39.2562C51.5996 35.8053 52.0708 32.1991 53.1226 28.6837C53.9299 28.7769 54.389 28.8469 54.8086 29.3159C52.8389 40.8399 50.868 51.958 48.9873 63.0914C45.5003 83.7339 42.0286 104.379 38.6863 125.045C38.4402 126.568 39.2857 128.267 39.6237 129.883C40.585 128.581 42.1618 127.388 42.4162 125.96C46.9629 100.444 51.3268 74.895 55.7823 49.3624C57.3406 40.4328 59.0398 31.5278 60.8176 23.0406C60.9606 25.2622 60.9606 27.0546 60.9606 29.2574C68.1265 29.2574 75.1312 29.2574 82.6863 29.2574C82.6863 25.8029 82.7726 22.5295 82.6262 19.2665C82.5892 18.4413 81.8217 16.9545 81.3696 16.9467C74.7786 16.8328 68.0443 13.5114 61.4915 17.2194C62.1564 12.1395 62.949 7.49356 63.9725 3.10381C63.7986 6.90605 63.3939 10.4521 62.952 14.3238C66.3086 14.3238 69.5563 14.295 72.8034 14.3307C77.4379 14.3817 82.6058 16.377 85.8113 11.1422C84.8988 24.7508 83.8423 37.9363 82.6905 51.1135C81.114 69.1494 79.4639 87.1789 77.8479 105.211C77.2251 112.161 76.4659 119.103 76.1161 126.066C76.0495 127.393 77.6131 128.802 78.4245 130.173C79.4517 128.89 80.6098 127.686 81.4462 126.289C81.8173 125.669 81.5068 124.658 81.5599 123.828C82.0058 116.857 82.3525 109.878 82.9398 102.919C84.8112 80.742 86.7636 58.5722 88.7047 36.4015C89.6883 25.1676 90.6806 13.9342 91.8036 2.71398C91.8731 2.01928 93.1228 1.4427 93.8127 1.25851C92.8104 13.9124 91.0608 26.1619 93.8992 38.2956C94.5348 41.0127 96.9816 43.3062 98.5946 45.7947ZM67.3583 45.4372C71.3197 45.4372 75.2811 45.4372 79.0882 45.4372C82.6099 34.5226 81.9768 33.5963 71.4286 33.5523C61.5657 33.5111 61.5602 33.5111 61.6231 43.3701C61.6261 43.8338 61.8823 44.2958 62.1274 45.116C63.5113 45.2188 64.9623 45.3266 67.3583 45.4372ZM69.9541 85.7098C66.9627 85.6766 63.9563 85.8183 60.9842 85.5623C57.833 85.2908 56.8207 86.9017 56.7374 89.618C56.6872 91.2546 56.7281 92.894 56.7281 94.9561C63.0737 94.9561 69.1322 94.9561 75.1641 94.9561C77.1996 86.6425 76.9541 86.1273 69.9541 85.7098ZM59.3504 60.7498C58.1105 69.0193 58.1105 69.0192 66.4418 69.0135C67.9398 69.0124 69.4378 69.0125 70.9357 69.012C78.5649 69.009 79.2303 68.1941 78.0949 60.0039C72.0439 60.0039 65.9573 60.0039 59.3504 60.7498ZM62.0974 120.404C65.395 120.174 68.6926 119.943 72.3259 119.689C72.3259 116.974 72.3259 114.585 72.3259 111.665C68.9221 111.665 65.6295 111.657 62.337 111.667C54.5758 111.691 54.1771 112.11 54.2893 120.42C56.5808 120.42 58.8807 120.42 62.0974 120.404Z" fill="#1F4283"/>
<path d="M2.76999 0.0118429C20.1995 -0.0646871 37.58 0.239031 54.9579 0.653105C56.5283 0.690527 58.0818 1.43926 59.2398 2.3478C58.1477 3.67279 57.0152 4.4243 56.8403 5.35565C55.385 13.1051 54.1063 20.8878 52.7743 28.6604C52.0709 32.1991 51.5996 35.8053 50.5949 39.2562C49.6925 42.356 48.611 45.7362 43.9124 44.9147C42.2765 37.0262 43.4212 29.6589 45.5047 22.2299C47.0335 16.7785 45.7446 15.6571 39.8319 15.652C28.1864 15.6418 16.5401 15.5705 4.89599 15.6975C0.637837 15.744 -0.972042 14.5081 0.578099 10.067C1.65595 6.97897 2.03116 3.64568 2.76999 0.0118429Z" fill="#FF6B27"/>
<path d="M93.8127 1.25854C112.806 0.807128 131.789 0.803069 151.236 0.847819C151.111 14.957 150.37 13.4336 138.825 13.6987C127.056 13.969 115.293 14.5586 102.794 15.0364C101.407 25.0112 100.024 34.9591 98.6172 45.3508C96.9816 43.3062 94.5348 41.0127 93.8992 38.2956C91.0608 26.1619 92.8104 13.9124 93.8127 1.25854Z" fill="#FF6B27"/>
<path d="M63.9725 3.10382C64.6702 2.10293 65.5806 0.741111 66.5303 0.713046C72.9769 0.522567 79.4318 0.613482 85.6684 0.613482C85.6684 3.82842 85.6684 6.81768 85.6466 10.2612C82.6058 16.377 77.4379 14.3817 72.8034 14.3307C69.5563 14.295 66.3086 14.3238 62.952 14.3238C63.3939 10.4521 63.7986 6.90607 63.9725 3.10382Z" fill="#1F4283"/>
<path d="M61.646 17.6599C68.0443 13.5114 74.7787 16.8328 81.3696 16.9466C81.8217 16.9545 82.5892 18.4413 82.6262 19.2665C82.7726 22.5294 82.6863 25.8029 82.6863 29.2574C75.1313 29.2574 68.1265 29.2574 60.9606 29.2574C60.9606 27.0546 60.9606 25.2622 60.8177 23.0406C60.6747 22.6115 60.7075 22.6637 60.9371 22.4006C61.3278 20.6307 61.489 19.124 61.6501 17.6172C61.6501 17.6172 61.6727 17.6663 61.646 17.6599Z" fill="#1F4283"/>
<path d="M66.8858 45.4358C64.9623 45.3266 63.5113 45.2188 62.1274 45.116C61.8823 44.2958 61.6261 43.8338 61.6231 43.3701C61.5602 33.5111 61.5657 33.5111 71.4286 33.5523C81.9768 33.5964 82.6099 34.5226 79.0882 45.4372C75.2811 45.4372 71.3197 45.4372 66.8858 45.4358Z" fill="#F7FBFD"/>
<path d="M70.4135 85.7245C76.9541 86.1273 77.1996 86.6425 75.1641 94.9561C69.1322 94.9561 63.0737 94.9561 56.7281 94.9561C56.7281 92.894 56.6872 91.2546 56.7374 89.618C56.8207 86.9017 57.833 85.2908 60.9842 85.5622C63.9563 85.8183 66.9628 85.6766 70.4135 85.7245Z" fill="#F7FBFD"/>
<path d="M59.6105 60.3769C65.9573 60.0039 72.0439 60.0039 78.0949 60.0039C79.2303 68.1942 78.5648 69.009 70.9357 69.012C69.4377 69.0126 67.9397 69.0124 66.4418 69.0135C58.1104 69.0192 58.1104 69.0193 59.6105 60.3769Z" fill="#F7FBFD"/>
<path d="M61.639 120.412C58.8807 120.42 56.5807 120.42 54.2892 120.42C54.1771 112.11 54.5758 111.691 62.337 111.667C65.6295 111.657 68.9221 111.665 72.3259 111.665C72.3259 114.585 72.3259 116.974 72.3259 119.689C68.6926 119.943 65.395 120.174 61.639 120.412Z" fill="#F7FBFD"/>
<path d="M53.1226 28.6836C54.1063 20.8878 55.385 13.1051 56.8403 5.35565C57.0152 4.4243 58.1477 3.67279 59.1944 2.79132C58.1608 11.2604 56.7693 19.7762 55.1129 28.6044C54.389 28.8469 53.9299 28.7769 53.1226 28.6836Z" fill="#1F4283"/>
<path d="M61.341 17.8476C61.489 19.124 61.3279 20.6307 60.9095 22.4142C60.7788 21.1532 60.9053 19.6156 61.341 17.8476Z" fill="#479ED1"/>
</svg>
